<mxfile host="app.diagrams.net" modified="2023-08-09T20:46:54.765Z" agent="Mozilla/5.0 (Windows NT 10.0; Win64; x64) AppleWebKit/537.36 (KHTML, like Gecko) Chrome/115.0.0.0 Safari/537.36" etag="dJ7oS2jyEBPeiocVccDm" version="21.6.7" type="device">
  <diagram name="Page-1" id="2cc2dc42-3aac-f2a9-1cec-7a8b7cbee084">
    <mxGraphModel dx="1955" dy="1101" grid="1" gridSize="10" guides="1" tooltips="1" connect="1" arrows="1" fold="1" page="1" pageScale="1" pageWidth="1100" pageHeight="850" background="none" math="0" shadow="0">
      <root>
        <mxCell id="0" />
        <mxCell id="1" parent="0" />
        <mxCell id="7026571954dc6520-1" value="" style="strokeWidth=1;shadow=0;dashed=0;align=center;html=1;shape=mxgraph.mockup.containers.browserWindow;rSize=0;strokeColor=#666666;mainText=,;recursiveResize=0;rounded=0;labelBackgroundColor=none;fontFamily=Verdana;fontSize=12" parent="1" vertex="1">
          <mxGeometry x="25" y="15" width="1050" height="820" as="geometry" />
        </mxCell>
        <mxCell id="7026571954dc6520-2" value="CONTACT US" style="strokeWidth=1;shadow=0;dashed=0;align=center;html=1;shape=mxgraph.mockup.containers.anchor;fontSize=17;fontColor=#666666;align=left;" parent="7026571954dc6520-1" vertex="1">
          <mxGeometry x="60" y="12" width="110" height="26" as="geometry" />
        </mxCell>
        <mxCell id="7026571954dc6520-3" value="https://www.ihypesfmedia.com/contact-us" style="strokeWidth=1;shadow=0;dashed=0;align=center;html=1;shape=mxgraph.mockup.containers.anchor;rSize=0;fontSize=17;fontColor=#666666;align=left;" parent="7026571954dc6520-1" vertex="1">
          <mxGeometry x="130" y="60" width="250" height="26" as="geometry" />
        </mxCell>
        <mxCell id="7026571954dc6520-15" value="" style="verticalLabelPosition=bottom;shadow=0;dashed=0;align=center;html=1;verticalAlign=top;strokeWidth=1;shape=mxgraph.mockup.markup.line;strokeColor=#999999;rounded=0;labelBackgroundColor=none;fillColor=#ffffff;fontFamily=Verdana;fontSize=12;fontColor=#000000;" parent="7026571954dc6520-1" vertex="1">
          <mxGeometry y="170" width="1050" height="20" as="geometry" />
        </mxCell>
        <mxCell id="W9UuiEgfhQGYlAS1tFF7-3" value="HOME" style="text;html=1;points=[];align=left;verticalAlign=top;spacingTop=-4;fontSize=15;fontFamily=Verdana" parent="7026571954dc6520-1" vertex="1">
          <mxGeometry x="110" y="130" width="60" height="30" as="geometry" />
        </mxCell>
        <mxCell id="W9UuiEgfhQGYlAS1tFF7-4" value="SERVICES" style="text;html=1;points=[];align=left;verticalAlign=top;spacingTop=-4;fontSize=15;fontFamily=Verdana" parent="7026571954dc6520-1" vertex="1">
          <mxGeometry x="170" y="130" width="80" height="30" as="geometry" />
        </mxCell>
        <mxCell id="W9UuiEgfhQGYlAS1tFF7-5" value="ABOUT" style="text;html=1;points=[];align=left;verticalAlign=top;spacingTop=-4;fontSize=15;fontFamily=Verdana" parent="7026571954dc6520-1" vertex="1">
          <mxGeometry x="260" y="130" width="80" height="30" as="geometry" />
        </mxCell>
        <mxCell id="W9UuiEgfhQGYlAS1tFF7-6" value="CONTACT US" style="text;html=1;points=[];align=left;verticalAlign=top;spacingTop=-4;fontSize=15;fontFamily=Verdana" parent="7026571954dc6520-1" vertex="1">
          <mxGeometry x="325" y="130" width="80" height="30" as="geometry" />
        </mxCell>
        <mxCell id="W9UuiEgfhQGYlAS1tFF7-7" value="LOGO" style="ellipse;whiteSpace=wrap;html=1;aspect=fixed;" parent="7026571954dc6520-1" vertex="1">
          <mxGeometry x="15" y="115" width="60" height="60" as="geometry" />
        </mxCell>
        <mxCell id="W9UuiEgfhQGYlAS1tFF7-8" value="IG" style="ellipse;whiteSpace=wrap;html=1;aspect=fixed;" parent="7026571954dc6520-1" vertex="1">
          <mxGeometry x="990" y="130" width="30" height="30" as="geometry" />
        </mxCell>
        <mxCell id="W9UuiEgfhQGYlAS1tFF7-9" value="FB" style="ellipse;whiteSpace=wrap;html=1;aspect=fixed;" parent="7026571954dc6520-1" vertex="1">
          <mxGeometry x="950" y="130" width="30" height="30" as="geometry" />
        </mxCell>
        <mxCell id="0FKcP58HkaSwKEI28_fJ-34" value="First name" style="html=1;shadow=0;dashed=0;shape=mxgraph.bootstrap.rrect;rSize=5;fillColor=none;strokeColor=#999999;align=left;spacing=15;fontSize=14;fontColor=#6C767D;" vertex="1" parent="7026571954dc6520-1">
          <mxGeometry x="295" y="245" width="210" height="30" as="geometry" />
        </mxCell>
        <mxCell id="0FKcP58HkaSwKEI28_fJ-35" value="Last name" style="html=1;shadow=0;dashed=0;shape=mxgraph.bootstrap.rrect;rSize=5;fillColor=none;strokeColor=#999999;align=left;spacing=15;fontSize=14;fontColor=#6C767D;" vertex="1" parent="7026571954dc6520-1">
          <mxGeometry x="565" y="245" width="210" height="30" as="geometry" />
        </mxCell>
        <mxCell id="0FKcP58HkaSwKEI28_fJ-36" value="Name *" style="fillColor=none;strokeColor=none;align=left;fontSize=14;" vertex="1" parent="7026571954dc6520-1">
          <mxGeometry x="295" y="205" width="260" height="40" as="geometry" />
        </mxCell>
        <mxCell id="0FKcP58HkaSwKEI28_fJ-37" value="" style="html=1;shadow=0;dashed=0;shape=mxgraph.bootstrap.rrect;rSize=5;fillColor=none;strokeColor=#999999;align=left;spacing=15;fontSize=14;fontColor=#6C767D;" vertex="1" parent="7026571954dc6520-1">
          <mxGeometry x="295" y="315" width="210" height="30" as="geometry" />
        </mxCell>
        <mxCell id="0FKcP58HkaSwKEI28_fJ-38" value="Email *" style="fillColor=none;strokeColor=none;align=left;fontSize=14;" vertex="1" parent="7026571954dc6520-1">
          <mxGeometry x="295" y="275" width="260" height="40" as="geometry" />
        </mxCell>
        <mxCell id="0FKcP58HkaSwKEI28_fJ-39" value="example@example.com" style="fillColor=none;strokeColor=none;align=left;fontSize=8;" vertex="1" parent="7026571954dc6520-1">
          <mxGeometry x="305" y="345" width="85" height="25" as="geometry" />
        </mxCell>
        <mxCell id="0FKcP58HkaSwKEI28_fJ-40" value="(000) 000-0000" style="html=1;shadow=0;dashed=0;shape=mxgraph.bootstrap.rrect;rSize=5;fillColor=none;strokeColor=#999999;align=left;spacing=15;fontSize=14;fontColor=#6C767D;" vertex="1" parent="7026571954dc6520-1">
          <mxGeometry x="295" y="415" width="210" height="30" as="geometry" />
        </mxCell>
        <mxCell id="0FKcP58HkaSwKEI28_fJ-41" value="Mobile Number*" style="fillColor=none;strokeColor=none;align=left;fontSize=14;" vertex="1" parent="7026571954dc6520-1">
          <mxGeometry x="295" y="375" width="260" height="40" as="geometry" />
        </mxCell>
        <mxCell id="0FKcP58HkaSwKEI28_fJ-42" value="" style="html=1;shadow=0;dashed=0;shape=mxgraph.bootstrap.rrect;rSize=5;fillColor=none;strokeColor=#999999;align=left;spacing=15;fontSize=14;fontColor=#6C767D;" vertex="1" parent="7026571954dc6520-1">
          <mxGeometry x="295" y="495" width="210" height="30" as="geometry" />
        </mxCell>
        <mxCell id="0FKcP58HkaSwKEI28_fJ-43" value="Subject" style="fillColor=none;strokeColor=none;align=left;fontSize=14;" vertex="1" parent="7026571954dc6520-1">
          <mxGeometry x="295" y="455" width="260" height="40" as="geometry" />
        </mxCell>
        <mxCell id="0FKcP58HkaSwKEI28_fJ-44" value="" style="html=1;shadow=0;dashed=0;shape=mxgraph.bootstrap.rrect;rSize=5;fillColor=none;strokeColor=#999999;align=left;spacing=15;fontSize=14;fontColor=#6C767D;" vertex="1" parent="7026571954dc6520-1">
          <mxGeometry x="295" y="595" width="475" height="105" as="geometry" />
        </mxCell>
        <mxCell id="0FKcP58HkaSwKEI28_fJ-45" value="Inquiry | Message" style="fillColor=none;strokeColor=none;align=left;fontSize=14;" vertex="1" parent="7026571954dc6520-1">
          <mxGeometry x="295" y="545" width="260" height="40" as="geometry" />
        </mxCell>
        <mxCell id="0FKcP58HkaSwKEI28_fJ-46" value="SUBMIT" style="html=1;shadow=0;dashed=0;shape=mxgraph.bootstrap.rrect;rSize=5;fillColor=none;strokeColor=#999999;align=left;spacing=15;fontSize=14;fontColor=#6C767D;" vertex="1" parent="7026571954dc6520-1">
          <mxGeometry x="495" y="725" width="75" height="30" as="geometry" />
        </mxCell>
      </root>
    </mxGraphModel>
  </diagram>
</mxfile>
